<?xml version="1.0" encoding="UTF-8"?>
<!DOCTYPE svg PUBLIC "-//W3C//DTD SVG 1.1//EN" "http://www.w3.org/Graphics/SVG/1.1/DTD/svg11.dtd">
<svg xmlns="http://www.w3.org/2000/svg" version="1.1" width="370px" height="80px" style="shape-rendering:geometricPrecision; text-rendering:geometricPrecision; image-rendering:optimizeQuality; fill-rule:evenodd; clip-rule:evenodd" xmlns:xlink="http://www.w3.org/1999/xlink">
<g><path style="opacity:0.865" fill="#fefffe" d="M 223.5,-0.5 C 226.167,-0.5 228.833,-0.5 231.5,-0.5C 230.139,8.9476 228.139,18.2809 225.5,27.5C 225.667,28.1667 225.833,28.8333 226,29.5C 229.314,25.2685 233.147,24.6018 237.5,27.5C 241.914,31.5788 243.414,36.5788 242,42.5C 240.06,52.6527 236.727,62.3194 232,71.5C 228.779,75.9434 224.445,78.2768 219,78.5C 214.521,77.6613 210.021,77.4947 205.5,78C 204.833,77 204.167,76 203.5,75C 210.242,49.8648 216.909,24.6982 223.5,-0.5 Z M 230.5,35.5 C 232.722,35.5587 233.722,36.7253 233.5,39C 231.923,49.0652 228.756,58.5652 224,67.5C 221.201,71.0666 218.034,71.7333 214.5,69.5C 216.564,62.8078 218.731,56.1411 221,49.5C 223.435,44.2851 226.601,39.6185 230.5,35.5 Z"/></g>
<g><path style="opacity:0.87" fill="#fefffe" d="M 18.5,2.5 C 27.9942,1.89522 37.3275,2.72855 46.5,5C 48.7089,6.87337 50.5422,9.04003 52,11.5C 55.5701,35.4155 45.4034,47.4155 21.5,47.5C 19.628,57.6548 17.128,67.6548 14,77.5C 11.5991,78.6023 9.09914,78.769 6.5,78C 5.91858,77.1074 5.58524,76.1074 5.5,75C 10.5276,53.8893 15.8609,32.8893 21.5,12C 14.6304,10.7528 13.6304,7.58617 18.5,2.5 Z M 31.5,11.5 C 42.4687,10.4163 45.9687,15.083 42,25.5C 41.0801,29.2633 39.5801,32.7633 37.5,36C 33.507,37.8508 29.3403,39.0174 25,39.5C 26.5262,30.059 28.6929,20.7257 31.5,11.5 Z"/></g>
<g><path style="opacity:0.857" fill="#fefffe" d="M 104.5,6.5 C 107.365,6.05484 109.865,6.7215 112,8.5C 111.328,13.527 110.161,18.527 108.5,23.5C 115.937,24.3846 117.27,27.5513 112.5,33C 110.236,33.2362 108.069,33.7362 106,34.5C 102.333,48.5 98.6667,62.5 95,76.5C 92.8471,78.4439 90.3471,78.9439 87.5,78C 86.4086,75.9361 86.2419,73.7695 87,71.5C 90.012,59.1183 93.1787,46.785 96.5,34.5C 91.071,33.1439 90.071,30.1439 93.5,25.5C 95.3817,24.9067 97.2151,24.2401 99,23.5C 100.077,17.5029 101.91,11.8362 104.5,6.5 Z"/></g>
<g><path style="opacity:0.857" fill="#fefffe" d="M 166.5,6.5 C 168.792,6.24358 170.959,6.57692 173,7.5C 172.979,13.2617 172.145,18.9283 170.5,24.5C 176.854,24.6054 178.187,27.4388 174.5,33C 172.19,33.4966 169.857,33.6633 167.5,33.5C 164.342,48.6392 160.342,63.4725 155.5,78C 151.57,79.4211 148.903,78.2545 147.5,74.5C 151.25,60.9993 154.916,47.4993 158.5,34C 151.608,33.0837 150.608,30.0837 155.5,25C 157.256,24.7978 158.922,24.2978 160.5,23.5C 161.746,17.4862 163.746,11.8196 166.5,6.5 Z"/></g>
<g><path style="opacity:0.869" fill="#fefffe" d="M 65.5,79.5 C 64.1667,79.5 62.8333,79.5 61.5,79.5C 54.682,76.5643 51.3487,71.231 51.5,63.5C 51.9019,48.7654 57.2352,36.2654 67.5,26C 79.9014,21.5538 86.2347,26.0538 86.5,39.5C 86.283,53.9979 81.283,66.4979 71.5,77C 69.3885,77.8447 67.3885,78.678 65.5,79.5 Z M 72.5,32.5 C 74.0174,32.5106 75.1841,33.1772 76,34.5C 77.2088,45.4561 75.2088,55.7895 70,65.5C 64.6476,72.7519 61.8142,71.7519 61.5,62.5C 62.1639,52.512 64.9972,43.1786 70,34.5C 70.9947,33.9341 71.828,33.2674 72.5,32.5 Z"/></g>
<g><path style="opacity:0.873" fill="#fefffe" d="M 184.5,79.5 C 183.167,79.5 181.833,79.5 180.5,79.5C 175.517,78.0141 172.35,74.6807 171,69.5C 169.492,53.361 173.992,39.1943 184.5,27C 192.582,21.8125 199.082,23.3125 204,31.5C 206.505,48.3057 202.338,63.1391 191.5,76C 189.075,77.2126 186.741,78.3793 184.5,79.5 Z M 191.5,32.5 C 192.496,32.4142 193.329,32.7476 194,33.5C 196.16,45.2012 194.16,56.2012 188,66.5C 186.649,68.019 185.149,69.3523 183.5,70.5C 182.201,69.91 181.368,68.91 181,67.5C 179.902,56.087 182.236,45.4203 188,35.5C 189.145,34.3636 190.312,33.3636 191.5,32.5 Z"/></g>
<g><path style="opacity:0.869" fill="#fefffe" d="M 255.5,79.5 C 254.167,79.5 252.833,79.5 251.5,79.5C 244.682,76.5643 241.349,71.231 241.5,63.5C 241.902,48.7654 247.235,36.2654 257.5,26C 269.901,21.5538 276.235,26.0538 276.5,39.5C 276.283,53.9979 271.283,66.4979 261.5,77C 259.389,77.8447 257.389,78.678 255.5,79.5 Z M 262.5,32.5 C 264.017,32.5106 265.184,33.1772 266,34.5C 267.209,45.4561 265.209,55.7895 260,65.5C 254.648,72.7519 251.814,71.7519 251.5,62.5C 252.164,52.512 254.997,43.1786 260,34.5C 260.995,33.9341 261.828,33.2674 262.5,32.5 Z"/></g>
<g><path style="opacity:0.87" fill="#fefffe" d="M 132.5,24.5 C 136.37,26.4441 140.037,26.4441 143.5,24.5C 145.688,24.3073 147.355,25.1406 148.5,27C 144.367,39.7217 140.867,52.5551 138,65.5C 140.111,61.0561 143.111,60.3895 147,63.5C 147.667,64.8333 147.667,66.1667 147,67.5C 143.358,72.1465 138.858,75.6465 133.5,78C 129.604,79.0032 127.27,77.5032 126.5,73.5C 124.684,74.8149 123.017,76.3149 121.5,78C 115.798,77.9955 111.965,75.1622 110,69.5C 110.253,56.3962 113.587,44.0629 120,32.5C 123.06,27.9113 127.226,25.2446 132.5,24.5 Z M 131.5,32.5 C 134.261,31.9147 135.927,32.9147 136.5,35.5C 134.421,44.5718 131.254,53.2385 127,61.5C 125.333,64.5 123,66.8333 120,68.5C 118.977,67.3999 118.477,66.0666 118.5,64.5C 119.965,54.2707 123.132,44.604 128,35.5C 129.145,34.3636 130.312,33.3636 131.5,32.5 Z"/></g>
<g><path style="opacity:0.851" fill="#fefffe" d="M 284.5,24.5 C 287.272,24.22 289.772,24.8866 292,26.5C 293.368,31.984 295.034,37.3173 297,42.5C 300.5,36.8333 304,31.1667 307.5,25.5C 310.034,24.2117 312.534,24.2117 315,25.5C 315.667,26.8333 315.667,28.1667 315,29.5C 310,37.1667 305,44.8333 300,52.5C 300.353,60.4498 301.519,68.2832 303.5,76C 301.051,78.6027 298.218,79.1027 295,77.5C 293.981,72.3541 292.648,67.3541 291,62.5C 287.213,67.956 283.046,73.1226 278.5,78C 276.167,78.6667 273.833,78.6667 271.5,78C 270.978,77.4387 270.645,76.772 270.5,76C 277.012,67.6519 283.345,59.1519 289.5,50.5C 287.77,44.1427 285.937,37.8093 284,31.5C 283.297,29.0709 283.463,26.7375 284.5,24.5 Z"/></g>
</svg>
