<?xml version="1.0" encoding="UTF-8"?>
<!DOCTYPE svg PUBLIC "-//W3C//DTD SVG 1.1//EN" "http://www.w3.org/Graphics/SVG/1.1/DTD/svg11.dtd">
<svg xmlns="http://www.w3.org/2000/svg" version="1.1" width="370px" height="80px" style="shape-rendering:geometricPrecision; text-rendering:geometricPrecision; image-rendering:optimizeQuality; fill-rule:evenodd; clip-rule:evenodd" xmlns:xlink="http://www.w3.org/1999/xlink">
<g><path style="opacity:1" fill="#fcfcfc" d="M -0.5,-0.5 C 74.5,-0.5 149.5,-0.5 224.5,-0.5C 217.377,24.3238 210.71,49.3238 204.5,74.5C 204.712,76.888 206.045,77.888 208.5,77.5C 214.5,77.8539 220.5,77.3539 226.5,76C 232.744,68.9649 236.91,60.7982 239,51.5C 241.598,44.8816 241.932,38.2149 240,31.5C 237.95,29.1122 235.616,27.1122 233,25.5C 229.069,27.097 226.069,29.7637 224,33.5C 223.833,32.8333 223.667,32.1667 223.5,31.5C 226.472,20.9489 228.805,10.2823 230.5,-0.5C 276.833,-0.5 323.167,-0.5 369.5,-0.5C 369.5,26.1667 369.5,52.8333 369.5,79.5C 246.167,79.5 122.833,79.5 -0.5,79.5C -0.5,52.8333 -0.5,26.1667 -0.5,-0.5 Z"/></g>
<g><path style="opacity:1" fill="#0c0c0c" d="M 224.5,-0.5 C 226.5,-0.5 228.5,-0.5 230.5,-0.5C 228.805,10.2823 226.472,20.9489 223.5,31.5C 223.667,32.1667 223.833,32.8333 224,33.5C 226.069,29.7637 229.069,27.097 233,25.5C 235.616,27.1122 237.95,29.1122 240,31.5C 241.932,38.2149 241.598,44.8816 239,51.5C 236.91,60.7982 232.744,68.9649 226.5,76C 220.5,77.3539 214.5,77.8539 208.5,77.5C 206.045,77.888 204.712,76.888 204.5,74.5C 210.71,49.3238 217.377,24.3238 224.5,-0.5 Z"/></g>
<g><path style="opacity:1" fill="#0b0b0b" d="M 18.5,3.5 C 27.9942,2.89522 37.3275,3.72855 46.5,6C 51.8952,10.2948 53.7285,15.7948 52,22.5C 49.423,40.304 39.0897,48.6374 21,47.5C 18.6667,56.8333 16.3333,66.1667 14,75.5C 11.8938,77.291 9.39382,77.9577 6.5,77.5C 6.33669,75.1432 6.50335,72.8098 7,70.5C 11.7874,50.5149 16.9541,30.6816 22.5,11C 16.3405,11.0116 15.0072,8.51157 18.5,3.5 Z"/></g>
<g><path style="opacity:1" fill="#0b0b0b" d="M 104.5,7.5 C 106.833,7.5 109.167,7.5 111.5,7.5C 110.167,13.5 108.833,19.5 107.5,25.5C 109.833,25.5 112.167,25.5 114.5,25.5C 114.743,31.8679 111.743,34.2013 105.5,32.5C 102.292,47.3311 98.4589,61.9978 94,76.5C 91.9592,77.4231 89.7925,77.7564 87.5,77.5C 87.3359,74.8127 87.5026,72.146 88,69.5C 91.4783,57.5872 94.6449,45.5872 97.5,33.5C 95.9547,32.5481 94.288,32.2148 92.5,32.5C 92.3398,30.8008 92.5065,29.1341 93,27.5C 95.4226,26.2878 97.7559,24.9544 100,23.5C 100.887,17.9474 102.387,12.614 104.5,7.5 Z"/></g>
<g><path style="opacity:1" fill="#0c0c0c" d="M 166.5,7.5 C 168.5,7.5 170.5,7.5 172.5,7.5C 172.14,13.6079 171.14,19.6079 169.5,25.5C 171.5,25.5 173.5,25.5 175.5,25.5C 175.682,27.5914 175.348,29.5914 174.5,31.5C 171.914,32.48 169.247,32.8134 166.5,32.5C 163.319,47.2241 159.819,61.8908 156,76.5C 153.936,77.5914 151.769,77.7581 149.5,77C 148.941,76.2753 148.608,75.4419 148.5,74.5C 151.784,60.5301 155.45,46.6968 159.5,33C 157.527,32.5045 155.527,32.3379 153.5,32.5C 153.066,26.6003 155.732,24.267 161.5,25.5C 162.561,19.2457 164.228,13.2457 166.5,7.5 Z"/></g>
<g><path style="opacity:1" fill="#f6f6f6" d="M 30.5,10.5 C 42.3999,8.90629 46.5666,13.9063 43,25.5C 41.2324,36.9655 34.7324,41.2989 23.5,38.5C 25.8353,29.1589 28.1686,19.8255 30.5,10.5 Z"/></g>
<g><path style="opacity:1" fill="#0c0c0c" d="M 71.5,24.5 C 77.8981,23.9495 82.3981,26.6162 85,32.5C 86.2614,46.4563 83.2614,59.4563 76,71.5C 67.1017,81.4275 59.435,80.7608 53,69.5C 52.127,57.5324 54.4603,46.199 60,35.5C 63.0703,30.9273 66.9036,27.2607 71.5,24.5 Z"/></g>
<g><path style="opacity:1" fill="#0a0a0a" d="M 129.5,25.5 C 132.883,25.2572 136.049,25.9239 139,27.5C 141.481,25.6863 144.315,25.0196 147.5,25.5C 143.811,39.4018 139.811,53.2351 135.5,67C 135.667,67.5 135.833,68 136,68.5C 138.378,66.291 140.545,63.9576 142.5,61.5C 145.502,62.5099 146.668,64.5099 146,67.5C 141.676,73.5758 135.843,76.9091 128.5,77.5C 128.628,75.3453 128.128,73.3453 127,71.5C 122.33,78.9773 117.33,79.3107 112,72.5C 110.173,66.5507 110.173,60.5507 112,54.5C 114.032,46.7304 117.032,39.397 121,32.5C 123.441,29.5464 126.275,27.2131 129.5,25.5 Z"/></g>
<g><path style="opacity:1" fill="#101010" d="M 190.5,24.5 C 197.223,24.0417 201.723,27.0417 204,33.5C 204.857,47.5366 201.524,60.5366 194,72.5C 187.711,79.2265 181.044,79.8932 174,74.5C 169.051,57.1274 172.551,41.6274 184.5,28C 186.432,26.5415 188.432,25.3748 190.5,24.5 Z"/></g>
<g><path style="opacity:1" fill="#0c0c0c" d="M 261.5,24.5 C 267.898,23.9495 272.398,26.6162 275,32.5C 276.261,46.4563 273.261,59.4563 266,71.5C 257.102,81.4275 249.435,80.7608 243,69.5C 242.127,57.5324 244.46,46.199 250,35.5C 253.07,30.9273 256.904,27.2607 261.5,24.5 Z"/></g>
<g><path style="opacity:1" fill="#0d0d0d" d="M 284.5,25.5 C 286.792,25.2436 288.959,25.5769 291,26.5C 292.827,32.1575 294.66,37.8242 296.5,43.5C 300.662,37.8271 304.662,31.9937 308.5,26C 310.473,25.5045 312.473,25.3379 314.5,25.5C 314.657,26.8734 314.49,28.2068 314,29.5C 309.249,37.3374 304.249,45.004 299,52.5C 300.088,60.7886 301.254,69.122 302.5,77.5C 300.167,77.5 297.833,77.5 295.5,77.5C 294.549,71.7945 293.382,66.1278 292,60.5C 287.878,66.2905 283.378,71.7905 278.5,77C 276.19,77.4966 273.857,77.6633 271.5,77.5C 271.351,76.448 271.517,75.448 272,74.5C 277.667,67.5 283.333,60.5 289,53.5C 289.425,46.1949 288.092,39.1949 285,32.5C 284.503,30.1902 284.337,27.8568 284.5,25.5 Z"/></g>
<g><path style="opacity:1" fill="#f5f5f5" d="M 70.5,32.5 C 73.0792,32.0833 75.2458,32.75 77,34.5C 78.4037,46.8191 75.7371,58.1524 69,68.5C 66.6025,71.0544 64.2691,71.0544 62,68.5C 60.1971,55.3368 63.0304,43.3368 70.5,32.5 Z"/></g>
<g><path style="opacity:1" fill="#f3f3f3" d="M 130.5,31.5 C 135.712,30.4915 137.878,32.4915 137,37.5C 134.73,44.9753 132.064,52.3086 129,59.5C 126.955,62.4233 124.788,65.2567 122.5,68C 119.094,69.2399 117.427,68.0732 117.5,64.5C 118.914,52.2423 123.247,41.2423 130.5,31.5 Z"/></g>
<g><path style="opacity:1" fill="#f9f9f9" d="M 189.5,32.5 C 191.467,32.2606 193.301,32.5939 195,33.5C 196.471,45.1429 194.471,56.1429 189,66.5C 187.148,70.0767 184.482,71.0767 181,69.5C 178.345,55.7947 181.178,43.4613 189.5,32.5 Z"/></g>
<g><path style="opacity:1" fill="#f5f5f5" d="M 260.5,32.5 C 263.079,32.0833 265.246,32.75 267,34.5C 268.404,46.8191 265.737,58.1524 259,68.5C 256.602,71.0544 254.269,71.0544 252,68.5C 250.197,55.3368 253.03,43.3368 260.5,32.5 Z"/></g>
<g><path style="opacity:1" fill="#f4f4f4" d="M 230.5,34.5 C 233.286,34.9564 234.619,36.6231 234.5,39.5C 232.842,46.9758 230.675,54.3092 228,61.5C 226.119,68.7518 221.619,71.9185 214.5,71C 215.642,57.0999 220.975,44.9332 230.5,34.5 Z"/></g>
</svg>
